<svg width="338" height="60" viewBox="0 0 338 60" fill="none" xmlns="http://www.w3.org/2000/svg">
<rect y="10.0001" width="8" height="40" fill="#F81DFB"/>
<rect width="7.86047" height="40" transform="matrix(-1 0 0 1 338 10.0001)" fill="#F81DFB"/>
<rect x="8.5" y="0.5" width="321.279" height="59" fill="#F81DFB" fill-opacity="0.05" stroke="#F81DFB"/>
<path d="M134.073 34.9999V22.5799H139.815C141.699 22.5799 142.641 23.5279 142.641 25.4239V26.6119C142.641 27.0199 142.521 27.3679 142.281 27.6559L141.651 28.4119L142.407 29.0419C142.803 29.3659 143.001 29.8459 143.001 30.4819V32.1559C143.001 34.0519 142.059 34.9999 140.175 34.9999H134.073ZM135.891 33.3439H140.157C140.841 33.3439 141.183 33.0079 141.183 32.3359V30.3739C141.183 29.6899 140.841 29.3479 140.157 29.3479H135.891V33.3439ZM135.891 27.6919H139.797C140.481 27.6919 140.823 27.3499 140.823 26.6659V25.2439C140.823 24.5719 140.481 24.2359 139.797 24.2359H135.891V27.6919ZM145.458 32.2279V25.6039H147.204V32.4079C147.204 33.1159 147.558 33.4699 148.266 33.4699H151.56V25.6039H153.306V34.9999H148.212C146.376 34.9999 145.458 34.0759 145.458 32.2279ZM155.05 25.8919L155.248 25.6039H156.76L159.316 33.4699H159.64L162.214 25.6039H163.708L163.906 25.8919L159.64 38.5999H158.128L157.948 38.3119L159.118 34.9999H158.128L155.05 25.8919ZM170.161 34.9999V22.5799H172.159L178.225 32.1019V22.5799H180.043V34.9999H178.045L171.979 25.4779V34.9999H170.161ZM182.88 32.2279V28.3579C182.88 26.5219 183.798 25.6039 185.634 25.6039H188.154C189.99 25.6039 190.908 26.5219 190.908 28.3579V32.2279C190.908 34.0759 189.99 34.9999 188.154 34.9999H185.634C183.798 34.9999 182.88 34.0759 182.88 32.2279ZM184.626 32.4079C184.626 33.1159 184.98 33.4699 185.688 33.4699H188.118C188.814 33.4699 189.162 33.1159 189.162 32.4079V28.1779C189.162 27.4819 188.814 27.1339 188.118 27.1339H185.688C184.98 27.1339 184.626 27.4819 184.626 28.1779V32.4079ZM192.581 25.8919L192.797 25.6039H194.237L196.019 33.4699H196.235L198.359 25.6039H200.321L202.445 33.4699H202.661L204.443 25.6039H205.883L206.081 25.8919L203.975 34.9999H201.257L199.331 27.6379L197.423 34.9999H194.705L192.581 25.8919Z" fill="white"/>
</svg>
