<svg width="48" height="48" viewBox="0 0 48 48" fill="none" xmlns="http://www.w3.org/2000/svg">
<g clip-path="url(#clip0_108_1557)">
<path d="M7.5 10.5C7.10218 10.5 6.72064 10.342 6.43934 10.0607C6.15804 9.77936 6 9.39782 6 9C6 8.60218 6.15804 8.22064 6.43934 7.93934C6.72064 7.65804 7.10218 7.5 7.5 7.5H40.5C40.8978 7.5 41.2794 7.65804 41.5607 7.93934C41.842 8.22064 42 8.60218 42 9C42 9.39782 41.842 9.77936 41.5607 10.0607C41.2794 10.342 40.8978 10.5 40.5 10.5H7.5ZM13.5 4.5C13.1022 4.5 12.7206 4.34196 12.4393 4.06066C12.158 3.77936 12 3.39782 12 3C12 2.60218 12.158 2.22064 12.4393 1.93934C12.7206 1.65804 13.1022 1.5 13.5 1.5H34.5C34.8978 1.5 35.2794 1.65804 35.5607 1.93934C35.842 2.22064 36 2.60218 36 3C36 3.39782 35.842 3.77936 35.5607 4.06066C35.2794 4.34196 34.8978 4.5 34.5 4.5H13.5ZM0 39C0 40.1935 0.474106 41.3381 1.31802 42.182C2.16193 43.0259 3.30653 43.5 4.5 43.5H43.5C44.6935 43.5 45.8381 43.0259 46.682 42.182C47.5259 41.3381 48 40.1935 48 39V18C48 16.8065 47.5259 15.6619 46.682 14.818C45.8381 13.9741 44.6935 13.5 43.5 13.5H4.5C3.30653 13.5 2.16193 13.9741 1.31802 14.818C0.474106 15.6619 0 16.8065 0 18L0 39ZM4.5 40.5C4.10218 40.5 3.72064 40.342 3.43934 40.0607C3.15804 39.7794 3 39.3978 3 39V18C3 17.6022 3.15804 17.2206 3.43934 16.9393C3.72064 16.658 4.10218 16.5 4.5 16.5H43.5C43.8978 16.5 44.2794 16.658 44.5607 16.9393C44.842 17.2206 45 17.6022 45 18V39C45 39.3978 44.842 39.7794 44.5607 40.0607C44.2794 40.342 43.8978 40.5 43.5 40.5H4.5Z" fill="#F81DFB"/>
</g>
<defs>
<clipPath id="clip0_108_1557">
<rect width="48" height="48" fill="white"/>
</clipPath>
</defs>
</svg>
