<svg width="20" height="20" viewBox="0 0 20 20" fill="none" xmlns="http://www.w3.org/2000/svg">
<path d="M10.4258 19.5485C3.83452 19.5485 2.07343 12.6774 2.86948 8.17554C2.90413 7.9796 3.16096 7.92315 3.27288 8.08769C3.61944 8.59706 3.92784 9.3328 4.43881 9.26894C5.20682 9.17292 5.73889 2.39605 10.2906 0.489211C10.4351 0.428703 10.5862 0.543508 10.5704 0.699289C10.3453 2.90761 11.6712 6.06913 14.0202 6.06913C15.3668 6.06913 16.2881 4.99444 16.7485 3.91515C16.8883 3.5873 17.3674 3.62862 17.4476 3.97593C18.2691 7.53382 20.4651 19.5485 10.4258 19.5485Z" fill="#FF8F1F"/>
<path d="M8.11557 12.9229C8.27057 12.7926 8.50588 12.882 8.54108 13.0814C8.62342 13.5479 8.8942 14.3497 9.78241 14.3497C10.8508 14.3497 11.5759 11.4097 11.7661 10.545C11.7974 10.4028 11.936 10.3062 12.0787 10.3352C14.7489 10.8781 16.0471 19.5484 10.1763 19.5484C5.90237 19.5484 6.87061 13.9687 8.11557 12.9229ZM15.4117 3.5333C15.5058 2.79728 14.1622 4.81037 14.1622 4.81037C14.1622 4.81037 15.1865 5.2942 15.4117 3.5333ZM1.87366 14.5099C1.90198 14.1966 1.49889 13.3577 1.42752 13.6899C1.2567 14.4846 1.84534 14.8233 1.87366 14.5099Z" fill="#FFB636"/>
<path d="M12.625 13.6171C12.5249 13.1995 12.1658 14.1694 12.2109 14.5645C12.256 14.9595 12.8645 14.6161 12.625 13.6171Z" fill="#FFD469"/>
</svg>
