<svg width="30" height="27" viewBox="0 0 30 27" fill="none" xmlns="http://www.w3.org/2000/svg">
<path d="M2.3446 6.73313C2.3446 9.02506 3.12781 10.6788 4.67069 11.6499C5.93575 12.4476 7.40172 12.5673 8.16453 12.5673C8.34974 12.5673 8.49884 12.5581 8.60244 12.5519C8.60244 12.5519 8.36072 14.0922 9.52848 15.614H9.47511C7.45195 15.614 0.853516 16.0266 0.853516 21.3315C0.853516 26.7254 6.91359 27 8.13 27C8.22574 27 8.28224 26.9969 8.28224 26.9969C8.2948 26.9969 8.38113 27 8.53024 27C9.31031 27 11.3272 26.9049 13.1997 26.0136C15.6294 24.863 16.8615 22.8549 16.8615 20.0536C16.8615 17.3475 14.9843 15.7367 13.614 14.5585C12.7775 13.839 12.0539 13.2193 12.0539 12.6164C12.0539 12.0027 12.5828 11.541 13.2499 10.9565C14.3313 10.013 15.3515 8.66761 15.3515 6.12409C15.3515 3.88892 15.0549 2.38705 13.2264 1.43438C13.4163 1.33926 14.0912 1.27023 14.4239 1.2242C15.4143 1.09227 16.863 0.941932 16.863 0.151875V0H9.64462C9.57242 0.00306818 2.3446 0.263864 2.3446 6.73313ZM13.997 20.5599C14.1351 22.7168 12.247 24.3077 9.41076 24.5086C6.53062 24.7157 4.16058 23.4486 4.02246 21.2932C3.95497 20.2561 4.42113 19.2436 5.33304 18.4352C6.25751 17.6175 7.52729 17.1112 8.9085 17.0115C9.07173 17.0023 9.2334 16.9931 9.39506 16.9931C12.0617 16.9947 13.8667 18.5257 13.997 20.5599ZM12.112 5.2558C12.8198 7.69193 11.751 10.2355 10.0464 10.7064C9.85021 10.7599 9.64741 10.7867 9.44372 10.7862C7.88358 10.7862 6.33756 9.2429 5.7631 7.11511C5.44291 5.92466 5.46959 4.87841 5.83687 3.87511C6.1963 2.88563 6.8461 2.22136 7.66227 1.99585C7.85846 1.94216 8.06094 1.91455 8.26655 1.91455C10.15 1.91455 11.3617 2.67852 12.112 5.2558ZM24.3357 10.4318V5.82955H21.1966V10.4318H16.4879V13.5H21.1966V18.1023H24.3357V13.5H29.0444V10.4318H24.3357Z" fill="#AD1AAF"/>
</svg>
