<svg width="48" height="48" viewBox="0 0 48 48" fill="none" xmlns="http://www.w3.org/2000/svg">
<path d="M22.1318 16.0078L22.4998 15.9978H37.4998C39.1598 15.9977 40.7569 16.6326 41.9637 17.7725C43.1704 18.9123 43.8954 20.4706 43.9898 22.1278L43.9998 22.4978V37.4978C44 39.1581 43.3647 40.7555 42.2245 41.9623C41.0843 43.1691 39.5255 43.8938 37.8678 43.9878L37.4998 43.9978H22.4998C20.8396 43.998 19.2422 43.3627 18.0354 42.2225C16.8286 41.0823 16.1038 39.5235 16.0098 37.8658L15.9998 37.4998V22.4998C15.9997 20.8396 16.635 19.2422 17.7752 18.0354C18.9154 16.8286 20.4742 16.1038 22.1318 16.0098V16.0078ZM37.4998 18.9978H22.4998C21.6215 18.9979 20.7752 19.3282 20.1291 19.9232C19.4829 20.5182 19.0841 21.3344 19.0118 22.2098L18.9998 22.4978V37.4978C18.9999 38.3765 19.3305 39.2231 19.9259 39.8693C20.5214 40.5155 21.3381 40.914 22.2138 40.9858L22.4998 40.9978H37.4998C38.3785 40.9978 39.2251 40.6672 39.8713 40.0718C40.5175 39.4763 40.916 38.6596 40.9878 37.7838L40.9998 37.4978V22.4978C40.9998 21.5696 40.6311 20.6793 39.9747 20.023C39.3183 19.3666 38.4281 18.9978 37.4998 18.9978ZM29.9998 21.9998C30.3977 21.9998 30.7792 22.1579 31.0605 22.4392C31.3418 22.7205 31.4998 23.102 31.4998 23.4998V28.4958H36.4998C36.8977 28.4958 37.2792 28.6539 37.5605 28.9352C37.8418 29.2165 37.9998 29.598 37.9998 29.9958C37.9998 30.3937 37.8418 30.7752 37.5605 31.0565C37.2792 31.3378 36.8977 31.4958 36.4998 31.4958H31.4998V36.4998C31.4998 36.8977 31.3418 37.2792 31.0605 37.5605C30.7792 37.8418 30.3977 37.9998 29.9998 37.9998C29.602 37.9998 29.2205 37.8418 28.9392 37.5605C28.6579 37.2792 28.4998 36.8977 28.4998 36.4998V31.4958H23.4998C23.102 31.4958 22.7205 31.3378 22.4392 31.0565C22.1579 30.7752 21.9998 30.3937 21.9998 29.9958C21.9998 29.598 22.1579 29.2165 22.4392 28.9352C22.7205 28.6539 23.102 28.4958 23.4998 28.4958H28.4998V23.4998C28.4998 23.102 28.6579 22.7205 28.9392 22.4392C29.2205 22.1579 29.602 21.9998 29.9998 21.9998ZM31.1638 8.46584L31.2678 8.81984L32.6538 13.9958H29.5478L28.3718 9.59584C28.253 9.15163 28.0478 8.73518 27.768 8.3703C27.4881 8.00542 27.1391 7.69926 26.7409 7.46932C26.3427 7.23938 25.9031 7.09016 25.4471 7.0302C24.9912 6.97023 24.528 7.00069 24.0838 7.11984L9.59584 11.0038C8.7501 11.2306 8.02009 11.7662 7.54986 12.5049C7.07964 13.2435 6.90337 14.1316 7.05584 14.9938L7.11984 15.2898L11.0038 29.7778C11.186 30.4586 11.5695 31.0686 12.104 31.5279C12.6386 31.9871 13.2994 32.2743 13.9998 32.3518V35.3638C12.6995 35.2863 11.4524 34.8202 10.42 34.0257C9.3877 33.2312 8.61772 32.145 8.20984 30.9078L8.10584 30.5558L4.22384 16.0658C3.79385 14.4626 3.99351 12.7556 4.7819 11.2948C5.57028 9.8341 6.88764 8.73032 8.46384 8.20984L8.81984 8.10584L23.3078 4.22384C24.9111 3.79385 26.6181 3.99351 28.0788 4.7819C29.5396 5.57028 30.6434 6.88764 31.1638 8.46384V8.46584Z" fill="#F81DFB"/>
</svg>
