<svg width="34" height="27" viewBox="0 0 34 27" fill="none" xmlns="http://www.w3.org/2000/svg">
<path d="M30.3719 6.82824C30.3937 7.11991 30.3937 7.40991 30.3937 7.69991C30.3937 16.5749 23.5926 26.8016 11.1635 26.8016C7.33422 26.8016 3.77681 25.6999 0.783203 23.7866C1.32688 23.8482 1.85043 23.8699 2.41592 23.8699C5.45818 23.8772 8.41428 22.8668 10.8077 21.0016C9.39723 20.9762 8.0299 20.514 6.89666 19.6795C5.76342 18.8449 4.92086 17.6797 4.48661 16.3466C4.90444 16.4082 5.32395 16.4499 5.76359 16.4499C6.36936 16.4499 6.97848 16.3666 7.54398 16.2216C6.01321 15.9146 4.63675 15.0905 3.64864 13.8894C2.66052 12.6883 2.12175 11.1843 2.12395 9.63324V9.54991C3.02505 10.0482 4.07046 10.3599 5.17796 10.4016C4.25016 9.78922 3.48939 8.95828 2.96353 7.98289C2.43767 7.00751 2.16307 5.918 2.16422 4.81158C2.16422 3.56491 2.49815 2.42158 3.08378 1.42491C4.78218 3.49994 6.90046 5.19751 9.30144 6.40767C11.7024 7.61783 14.3325 8.3136 17.0215 8.44991C16.9174 7.94991 16.8537 7.43158 16.8537 6.91158C16.8532 6.02984 17.0278 5.15667 17.3673 4.34198C17.7068 3.52728 18.2047 2.78703 18.8324 2.16356C19.4601 1.54008 20.2054 1.04559 21.0257 0.708373C21.8459 0.371152 22.725 0.197805 23.6128 0.198243C25.5593 0.198243 27.3162 1.00824 28.5512 2.31824C30.0644 2.0276 31.5155 1.47895 32.8403 0.696576C32.3359 2.24794 31.2793 3.56342 29.8685 4.39658C31.2105 4.24454 32.5222 3.894 33.7598 3.35658C32.8354 4.69507 31.69 5.86882 30.3719 6.82824Z" fill="#AD1AAF"/>
</svg>
