<svg width="22" height="22" viewBox="0 0 22 22" fill="none" xmlns="http://www.w3.org/2000/svg">
<path fill-rule="evenodd" clip-rule="evenodd" d="M12.7741 2.41376C11.7497 1.54909 10.251 1.54909 9.22655 2.41376L8.12873 3.34039C7.98359 3.4629 7.80397 3.53729 7.61472 3.5533L6.18321 3.67436C4.8474 3.78733 3.7877 4.84704 3.67473 6.18284L3.55367 7.61435C3.53766 7.80361 3.46326 7.98322 3.34076 8.12836L2.41413 9.22617C1.54946 10.2506 1.54946 11.7493 2.41413 12.7738L3.34076 13.8716C3.46326 14.0167 3.53766 14.1963 3.55367 14.3855L3.67473 15.8171C3.7877 17.1529 4.8474 18.2126 6.18321 18.3256L7.61472 18.4466C7.80397 18.4626 7.98359 18.537 8.12873 18.6595L9.22655 19.5862C10.251 20.4508 11.7497 20.4508 12.7741 19.5862L13.8719 18.6595C14.0171 18.537 14.1967 18.4626 14.3859 18.4466L15.8175 18.3256C17.1532 18.2126 18.2129 17.1529 18.3259 15.8171L18.447 14.3855C18.463 14.1963 18.5374 14.0167 18.6599 13.8716L19.5865 12.7738C20.4512 11.7493 20.4512 10.2506 19.5865 9.22617L18.6599 8.12836C18.5374 7.98322 18.463 7.80361 18.447 7.61435L18.3259 6.18284C18.2129 4.84704 17.1532 3.78733 15.8175 3.67436L14.3859 3.5533C14.1967 3.53729 14.0171 3.4629 13.8719 3.34039L12.7741 2.41376ZM15.2503 9.29171C15.5725 8.96952 15.5725 8.44716 15.2503 8.12498C14.9281 7.8028 14.4058 7.8028 14.0836 8.12498L10.0836 12.1249L7.917 9.95831C7.59482 9.63611 7.07246 9.63611 6.75028 9.95831C6.42809 10.2805 6.42809 10.8028 6.75028 11.125L9.50027 13.875C9.82247 14.1973 10.3448 14.1973 10.667 13.875L15.2503 9.29171Z" fill="#00FF38"/>
</svg>
