<svg width="172" height="43" viewBox="0 0 172 43" fill="none" xmlns="http://www.w3.org/2000/svg">
<path d="M53.6633 14.958L53.9153 14.58H55.4993L58.8113 25.344H59.1893L62.5013 14.58H64.0853L64.3193 14.958L60.5213 27H57.4793L53.6633 14.958ZM65.9912 15.912V14.004H67.8632V15.912H65.9912ZM66.0632 27V17.604H67.8092V27H66.0632ZM70.4719 24.228V20.358C70.4719 18.522 71.3899 17.604 73.2259 17.604H75.5659C77.4019 17.604 78.3199 18.522 78.3199 20.358V22.95H72.2179V24.408C72.2179 25.116 72.5719 25.47 73.2799 25.47H77.9599V26.388L77.1499 27H73.2259C71.3899 27 70.4719 26.076 70.4719 24.228ZM72.2179 21.582H76.5739V20.178C76.5739 19.482 76.2259 19.134 75.5299 19.134H73.2799C72.5719 19.134 72.2179 19.482 72.2179 20.178V21.582ZM79.997 17.892L80.213 17.604H81.653L83.435 25.47H83.651L85.775 17.604H87.737L89.861 25.47H90.077L91.859 17.604H93.299L93.497 17.892L91.391 27H88.673L86.747 19.638L84.839 27H82.121L79.997 17.892ZM98.593 26.622L102.571 14.58H105.469L109.429 26.622L109.195 27H107.665L106.729 24.048H101.311L100.357 27H98.845L98.593 26.622ZM101.833 22.392H106.207L104.209 16.236H103.831L101.833 22.392ZM111.097 24.174V13.68H112.843V24.354C112.843 25.158 113.251 25.59 114.067 25.65V27.162C112.087 27.162 111.097 26.166 111.097 24.174ZM116.054 24.174V13.68H117.8V24.354C117.8 25.158 118.208 25.59 119.024 25.65V27.162C117.044 27.162 116.054 26.166 116.054 24.174Z" fill="white"/>
<rect y="10.5" width="4" height="22" fill="#AD1AAF"/>
<rect x="4.5" y="0.5" width="163" height="42" fill="#AD1AAF" fill-opacity="0.05" stroke="#AD1AAF"/>
<rect width="4" height="22" transform="matrix(-1 0 0 1 172 10.5)" fill="#AD1AAF"/>
</svg>
