<svg width="49" height="48" viewBox="0 0 49 48" fill="none" xmlns="http://www.w3.org/2000/svg">
<path d="M43.1659 19.9997H41.8325V11.9997C41.8325 11.646 41.6921 11.3069 41.442 11.0569C41.192 10.8068 40.8528 10.6663 40.4992 10.6663H8.49921C8.18349 10.6715 7.87619 10.5644 7.63202 10.3642C7.38785 10.164 7.22267 9.88362 7.16587 9.57301V9.09301C7.22267 8.7824 7.38785 8.50202 7.63202 8.30181C7.87619 8.10159 8.18349 7.99452 8.49921 7.99967H39.9392C40.2928 7.99967 40.632 7.8592 40.882 7.60915C41.1321 7.3591 41.2725 7.01996 41.2725 6.66634C41.2725 6.31272 41.1321 5.97358 40.882 5.72353C40.632 5.47348 40.2928 5.33301 39.9392 5.33301H8.49921C7.43834 5.33301 6.42092 5.75444 5.67078 6.50458C4.92063 7.25473 4.49921 8.27214 4.49921 9.33301C4.48985 9.49287 4.48985 9.65314 4.49921 9.81301V37.2397C4.50444 37.9576 4.65103 38.6674 4.9306 39.3286C5.21017 39.9899 5.61725 40.5896 6.1286 41.0935C6.63994 41.5974 7.24554 41.9957 7.9108 42.2655C8.57607 42.5354 9.28797 42.6716 10.0059 42.6663H40.4992C40.8528 42.6663 41.192 42.5259 41.442 42.2758C41.6921 42.0258 41.8325 41.6866 41.8325 41.333V33.333H43.1659C43.5195 33.333 43.8586 33.1925 44.1087 32.9425C44.3587 32.6924 44.4992 32.3533 44.4992 31.9997V21.333C44.4992 20.9794 44.3587 20.6402 44.1087 20.3902C43.8586 20.1401 43.5195 19.9997 43.1659 19.9997ZM39.1659 39.9997H10.0059C9.26427 40.0068 8.54985 39.7209 8.01799 39.204C7.48614 38.6871 7.1799 37.9812 7.16587 37.2397V13.173C7.59867 13.2984 8.04902 13.3525 8.49921 13.333H39.1659V19.9997H29.8325C28.0644 19.9997 26.3687 20.702 25.1185 21.9523C23.8682 23.2025 23.1659 24.8982 23.1659 26.6663C23.1659 28.4344 23.8682 30.1301 25.1185 31.3804C26.3687 32.6306 28.0644 33.333 29.8325 33.333H39.1659V39.9997ZM41.8325 30.6663H29.8325C28.7717 30.6663 27.7543 30.2449 27.0041 29.4948C26.254 28.7446 25.8325 27.7272 25.8325 26.6663C25.8325 25.6055 26.254 24.5881 27.0041 23.8379C27.7543 23.0878 28.7717 22.6663 29.8325 22.6663H41.8325V30.6663Z" fill="#F81DFB"/>
<path d="M31.1797 28.667C32.2843 28.667 33.1797 27.7716 33.1797 26.667C33.1797 25.5624 32.2843 24.667 31.1797 24.667C30.0751 24.667 29.1797 25.5624 29.1797 26.667C29.1797 27.7716 30.0751 28.667 31.1797 28.667Z" fill="#908294"/>
</svg>
