<svg width="38" height="27" viewBox="0 0 38 27" fill="none" xmlns="http://www.w3.org/2000/svg">
<path d="M37.0137 4.49441C36.7987 3.70204 36.3785 2.97942 35.7949 2.39847C35.2114 1.81753 34.4848 1.39852 33.6875 1.18316C30.7312 0.376908 18.9043 0.363784 18.9043 0.363784C18.9043 0.363784 7.07919 0.350658 4.12103 1.12128C3.32425 1.34656 2.59914 1.77149 2.01533 2.35529C1.43153 2.93908 1.00862 3.66214 0.787208 4.45503C0.00755429 7.39128 2.76588e-06 13.4813 2.76588e-06 13.4813C2.76588e-06 13.4813 -0.00754833 19.6013 0.766442 22.5075C1.20063 24.1144 2.47489 25.3838 4.0946 25.8169C7.08107 26.6232 18.8759 26.6363 18.8759 26.6363C18.8759 26.6363 30.7029 26.6494 33.6592 25.8807C34.4567 25.6657 35.184 25.2476 35.769 24.6679C36.3541 24.0881 36.7766 23.3667 36.9949 22.575C37.7764 19.6407 37.7821 13.5525 37.7821 13.5525C37.7821 13.5525 37.8198 7.43066 37.0137 4.49441ZM15.1211 19.1232L15.1306 7.87316L24.9603 13.5075L15.1211 19.1232Z" fill="#AD1AAF"/>
</svg>
